<svg width="252" height="62" viewBox="0 0 252 62" fill="none" xmlns="http://www.w3.org/2000/svg">
<path d="M122.864 60.6635C124.867 61.5174 127.133 61.5174 129.136 60.6635L199.076 30.8596C207.087 27.4456 204.648 15.5 195.939 15.5H56.0607C47.3519 15.5 44.9128 27.4455 52.9244 30.8596L122.864 60.6635Z" fill="#6C6C6C"/>
<g filter="url(#filter0_d_5_46)">
<path d="M113.8 34.22H110.06C109.14 34.22 108.64 34.24 108.18 34.32V33.26H106.34C106.42 32.8 106.44 32.44 106.44 31.78V30.3C106.44 29.76 106.42 29.32 106.36 28.8C107 28.86 107.56 28.88 108.56 28.88H113.76V28.42C113.76 27.92 113.72 27.6 113.64 27.16H116.1C116.02 27.56 116 27.92 116 28.42V28.88H121.48C122.5 28.88 123.02 28.86 123.7 28.8C123.64 29.3 123.62 29.72 123.62 30.26V31.78C123.62 32.36 123.64 32.8 123.7 33.26H121.86V34.32C121.36 34.24 120.9 34.22 119.96 34.22H115.94C115.92 34.86 115.92 34.86 115.9 35.32H119.64C120.62 35.32 120.94 35.3 121.42 35.24V37.14C120.9 37.08 120.58 37.06 119.64 37.06H115.78C115.72 37.56 115.7 37.72 115.62 38.14H121.86C122.86 38.14 123.36 38.12 123.92 38.04V40.14C123.2 40.06 122.64 40.02 121.76 40.02H116.66C117.38 40.88 117.76 41.22 118.52 41.7C119.4 42.24 120.64 42.72 122.04 43.06C122.54 43.2 123.16 43.32 124.26 43.52C123.8 44.22 123.48 44.84 123.22 45.68C121.36 45.24 120.54 44.98 119.48 44.52C117.34 43.56 115.98 42.48 114.74 40.72C114.02 42.08 113.16 43 111.82 43.86C110.42 44.74 109.16 45.22 106.94 45.66C106.58 44.64 106.46 44.42 105.88 43.58C107.98 43.28 109.02 42.98 110.22 42.36C111.38 41.76 112.16 41.04 112.76 40.02H108.34C107.56 40.02 106.92 40.06 106.2 40.14V38.04C106.74 38.12 107.22 38.14 108.22 38.14H113.46C113.54 37.76 113.58 37.54 113.64 37.06H110.26C109.3 37.06 108.98 37.08 108.46 37.14V35.24C108.94 35.3 109.28 35.32 110.26 35.32H113.78C113.8 34.76 113.8 34.76 113.8 34.22ZM110.06 32.46H113.82C113.8 31.82 113.8 31.56 113.74 31.18H116.06C116 31.42 116 31.66 115.98 32.46H119.96C120.72 32.46 121.04 32.44 121.54 32.4V30.76H108.52V32.4C108.88 32.44 109.32 32.46 110.06 32.46ZM138.84 35.28H135.02C134.1 35.28 133.18 35.32 132.56 35.4V33.16C133.16 33.24 134.06 33.28 135.02 33.28H141.82C142.94 33.28 143.74 33.24 144.26 33.16V35.4C143.6 35.32 142.76 35.28 141.88 35.28H141.02V43.24C141.02 44.96 140.44 45.38 138.02 45.38C137.34 45.38 136.74 45.36 135.8 45.32C135.68 44.44 135.56 43.92 135.22 43.08C136.28 43.22 137.32 43.3 137.94 43.3C138.74 43.3 138.84 43.26 138.84 42.82V35.28ZM130.4 27.06L132.32 28.4C132.1 28.64 132.1 28.64 131.72 29.08C130.42 30.64 129 31.88 127.12 33.08C126.72 32.3 126.38 31.82 125.86 31.2C127.44 30.34 128.46 29.54 129.44 28.46C129.88 27.94 130.14 27.56 130.4 27.06ZM133.36 30.3V28.08C133.92 28.16 134.66 28.2 135.7 28.2H141.1C142.1 28.2 142.78 28.16 143.38 28.08V30.3C142.68 30.22 141.94 30.18 141.14 30.18H135.7C134.86 30.18 134.02 30.22 133.36 30.3ZM128.6 43.08V39.58C128.6 38.74 128.6 38.62 128.64 37.26C128.12 37.88 127.52 38.46 126.82 38.96C126.52 38.06 126.26 37.54 125.82 36.82C127.92 35.46 129.98 33.26 130.74 31.54L132.62 32.78C132.42 33 132.24 33.24 131.96 33.66C131.5 34.32 131.32 34.58 130.8 35.22V43.1C130.8 44.16 130.84 44.96 130.94 45.62H128.46C128.56 45 128.6 44.12 128.6 43.08Z" fill="white"/>
</g>
<defs>
<filter id="filter0_d_5_46" x="101.88" y="27.06" width="46.38" height="26.62" filterUnits="userSpaceOnUse" color-interpolation-filters="sRGB">
<feFlood flood-opacity="0" result="BackgroundImageFix"/>
<feColorMatrix in="SourceAlpha" type="matrix" values="0 0 0 0 0 0 0 0 0 0 0 0 0 0 0 0 0 0 127 0" result="hardAlpha"/>
<feOffset dy="4"/>
<feGaussianBlur stdDeviation="2"/>
<feComposite in2="hardAlpha" operator="out"/>
<feColorMatrix type="matrix" values="0 0 0 0 0 0 0 0 0 0 0 0 0 0 0 0 0 0 0.25 0"/>
<feBlend mode="normal" in2="BackgroundImageFix" result="effect1_dropShadow_5_46"/>
<feBlend mode="normal" in="SourceGraphic" in2="effect1_dropShadow_5_46" result="shape"/>
</filter>
</defs>
</svg>
